<svg xmlns="http://www.w3.org/2000/svg" xmlns:xlink="http://www.w3.org/1999/xlink" width="2000" zoomAndPan="magnify" viewBox="0 0 1500 1499.999933" height="2000" preserveAspectRatio="xMidYMid meet" version="1.0"><defs><clipPath id="dab05dee2a"><path d="M 808.453125 930.523438 L 859.136719 930.523438 L 859.136719 983.277344 L 808.453125 983.277344 Z M 808.453125 930.523438 " clip-rule="nonzero"/></clipPath><clipPath id="563d130b7d"><path d="M 0.453125 0.523438 L 51.136719 0.523438 L 51.136719 53.277344 L 0.453125 53.277344 Z M 0.453125 0.523438 " clip-rule="nonzero"/></clipPath><clipPath id="f84c624617"><rect x="0" width="52" y="0" height="54"/></clipPath></defs><path fill="#1c694b" d="M 1347.203125 1180.953125 C 1347.175781 1180.96875 1347.148438 1181.003906 1347.132812 1181.019531 L 1348.464844 1182.210938 C 1348.464844 1182.214844 1347.199219 1180.949219 1347.203125 1180.953125 Z M 1347.203125 1180.953125 " fill-opacity="1" fill-rule="evenodd"/><path fill="#1c694b" d="M 81.371094 436.429688 C 81.484375 436.308594 81.582031 436.175781 81.691406 436.046875 C 81.675781 435.933594 81.691406 435.832031 81.671875 435.722656 Z M 81.371094 436.429688 " fill-opacity="1" fill-rule="evenodd"/><path fill="#1c694b" d="M 237.820312 237.871094 C 237.886719 237.871094 237.921875 237.847656 237.988281 237.859375 C 238.015625 237.769531 238.054688 237.703125 238.078125 237.617188 Z M 237.820312 237.871094 " fill-opacity="1" fill-rule="evenodd"/><path fill="#1c694b" d="M 1480.953125 620.789062 C 1480.945312 620.789062 1481.410156 620.601562 1481.410156 620.601562 C 1472.367188 612.117188 1472.167969 599.988281 1468.8125 589.269531 C 1453.976562 541.949219 1440.132812 494.320312 1424.800781 447.164062 C 1416.664062 422.167969 1394.488281 405.132812 1384.351562 380.988281 L 1384.792969 381.046875 C 1381.765625 380.417969 1380.550781 378.550781 1381.007812 375.535156 C 1380.3125 374.453125 1380.085938 373.285156 1380.347656 372.023438 C 1371.089844 368.820312 1370.417969 360.984375 1370.0625 352.980469 C 1367.496094 351.121094 1364.917969 349.261719 1362.351562 347.40625 C 1355.519531 345.871094 1353.453125 340.589844 1352.300781 334.609375 C 1352.292969 334.609375 1352.742188 334.710938 1352.742188 334.710938 C 1351.292969 332.972656 1349.847656 331.234375 1348.398438 329.496094 L 1348.390625 329.496094 C 1343.09375 326.398438 1339.460938 322.15625 1338.949219 315.75 C 1337.351562 313.105469 1335.746094 310.449219 1334.144531 307.792969 C 1321.570312 285.113281 1294.773438 275.246094 1283.394531 251.488281 L 1283.753906 251.625 C 1281.507812 250.070312 1279.257812 248.515625 1276.996094 246.960938 C 1276.066406 245.90625 1275.148438 244.859375 1274.226562 243.8125 C 1272.632812 241.660156 1271.042969 239.523438 1269.433594 237.386719 C 1266.433594 234.660156 1263.449219 231.933594 1260.457031 229.210938 C 1225.09375 202.777344 1189.730469 176.355469 1154.367188 149.933594 L 1154.550781 150.160156 C 1140.210938 153.691406 1133.675781 139.910156 1123.304688 134.957031 C 1093.65625 120.769531 1061.945312 110.9375 1034.222656 92.21875 C 1024.839844 85.878906 1010.917969 86.289062 999.085938 83.511719 C 968.859375 76.402344 942.390625 60.101562 913.96875 48.597656 C 912.675781 48.84375 911.5 48.5625 910.445312 47.761719 C 883.648438 44.933594 856.832031 44.625 829.890625 40.476562 C 763.925781 30.332031 697.582031 28.832031 633.472656 53.382812 C 628.628906 55.242188 624.511719 53.757812 620.367188 51.578125 C 617.085938 51.632812 613.8125 51.679688 610.53125 51.726562 C 595.382812 55.472656 580.675781 61.296875 564.75 61.238281 C 561.726562 61.621094 558.710938 62.007812 555.6875 62.398438 C 532.058594 68.15625 511.660156 84.019531 486.363281 84.546875 C 480.996094 88.125 475.851562 92.433594 468.640625 89.925781 C 466.324219 96.839844 460.796875 98.929688 454.261719 99.492188 C 449.535156 105.605469 442.625 102.351562 436.75 103.589844 C 425.246094 116.191406 411.714844 125.011719 394.179688 126.359375 C 387.851562 128.871094 385.050781 137.914062 376.320312 135.992188 C 355.234375 157.421875 328.480469 171.679688 302.992188 185.699219 C 284.128906 196.085938 276.992188 218.132812 256.046875 223.882812 C 254.667969 225.339844 253.289062 226.777344 251.917969 228.230469 C 248.9375 233.878906 244.941406 238.015625 237.988281 237.867188 C 232.601562 254.90625 217.390625 263.097656 205.257812 274.070312 C 205.265625 274.066406 205.101562 274.210938 205.101562 274.210938 C 199.992188 283.511719 190.574219 287.707031 182.382812 293.34375 C 180.539062 296.136719 178.707031 298.933594 176.871094 301.71875 C 171.089844 309.597656 165.316406 317.46875 159.542969 325.34375 L 159.710938 325.339844 C 155.304688 337.410156 144.332031 343.890625 136.277344 352.863281 C 136.28125 352.863281 136.4375 352.761719 136.4375 352.761719 C 122.554688 383.398438 103.269531 410.480469 81.691406 436.054688 C 84.75 455.417969 69.917969 467.355469 63.117188 482.765625 C 53.046875 505.597656 47.335938 530.359375 39.765625 554.28125 C 11.601562 643.257812 -0.0820312 734.332031 4.441406 827.558594 C 4.878906 836.59375 2.738281 845.757812 1.789062 854.867188 C 2.683594 856.074219 2.941406 857.402344 2.554688 858.851562 C 9.042969 860.027344 10.210938 864.855469 11.28125 870.4375 C 19.128906 911.347656 27.21875 952.207031 35.25 993.082031 L 34.96875 992.761719 C 40.117188 998.097656 41.6875 1004.949219 43.175781 1011.84375 C 46.578125 1014.09375 47.703125 1017.351562 47.371094 1021.25 C 50.976562 1026.789062 53.660156 1032.617188 53.367188 1039.4375 L 54.164062 1040.417969 L 53.53125 1041.507812 C 54.589844 1043.808594 55.648438 1046.125 56.714844 1048.421875 C 57.054688 1049.941406 57.386719 1051.453125 57.734375 1052.972656 C 62.839844 1061.5625 68.277344 1070.0625 66.257812 1080.839844 C 81.984375 1114.171875 97.726562 1147.5 113.453125 1180.828125 C 126.113281 1183.71875 126.585938 1193.847656 127.167969 1203.910156 C 128.59375 1205.941406 130.015625 1207.964844 131.4375 1209.988281 C 137.3125 1212.59375 141.582031 1216.902344 143.957031 1222.78125 C 157.132812 1255.359375 188.132812 1271.003906 211.796875 1293.484375 C 220.859375 1302.097656 227.167969 1312.488281 235.574219 1321.367188 C 262.058594 1349.359375 300.34375 1362.039062 326.222656 1390.167969 C 344.433594 1409.96875 373.230469 1410.875 390.628906 1430.671875 C 397.488281 1431.679688 403.453125 1434.597656 408.652344 1439.140625 C 424.097656 1441.628906 440.703125 1439.050781 454.335938 1449.53125 L 454.292969 1449.449219 C 506.714844 1461.171875 559.300781 1471.039062 613.496094 1468.429688 C 637.171875 1467.28125 660.5 1460.25 684.460938 1464.257812 C 708.949219 1450.238281 737.179688 1446.425781 762.785156 1435.445312 C 770.542969 1431.234375 778.292969 1427.035156 786.046875 1422.824219 C 789.113281 1421.042969 792.183594 1419.257812 795.246094 1417.46875 C 798.261719 1415.855469 801.289062 1414.246094 804.304688 1412.636719 L 804.257812 1412.679688 C 816.496094 1403.1875 828.722656 1393.683594 840.96875 1384.171875 C 843.796875 1381.300781 846.632812 1378.429688 849.464844 1375.570312 C 854.15625 1367.539062 859.921875 1360.625 868.804688 1356.945312 C 868.863281 1355.515625 869.183594 1354.136719 869.769531 1352.828125 C 871.011719 1351.160156 872.246094 1349.5 873.480469 1347.832031 C 876.507812 1344.886719 879.539062 1341.9375 882.566406 1338.996094 C 884.054688 1337.019531 885.550781 1335.050781 887.039062 1333.074219 C 886.976562 1331.578125 887.585938 1330.421875 888.84375 1329.597656 C 889.929688 1328.3125 891.03125 1327.03125 892.132812 1325.734375 L 892.472656 1325.289062 C 893.796875 1323.644531 895.125 1322 896.449219 1320.347656 L 896.359375 1320.363281 C 897.847656 1314.746094 899.625 1309.335938 905.902344 1307.179688 C 912.765625 1302.566406 909.046875 1294.441406 912.363281 1288.265625 C 932.316406 1251.070312 942.058594 1211.148438 943.101562 1168.925781 C 944.589844 1108.050781 924.570312 1053.101562 898.699219 999.300781 C 869.382812 938.328125 877.5 878.851562 909.589844 821.363281 C 918.355469 805.648438 926.765625 799.859375 944.167969 815.824219 C 995.734375 863.160156 1106.492188 868.40625 1164.613281 828.589844 C 1158.371094 828.589844 1152.296875 828.589844 1146.21875 828.589844 C 1110.160156 834.582031 1074.332031 836.121094 1039.265625 823.027344 L 1039.480469 823.191406 C 1034.105469 823.039062 1028.578125 823.347656 1024.621094 818.59375 C 1023.222656 818.933594 1022.039062 818.59375 1021.03125 817.566406 C 1018.742188 816.410156 1016.460938 815.246094 1014.175781 814.078125 C 1014.167969 814.078125 1012.875 814.460938 1012.875 814.460938 L 1011.933594 813.5 C 1002.59375 811.429688 994.363281 807.363281 987.929688 800.089844 C 956.925781 780.640625 957.070312 780.589844 986.386719 760.21875 C 1028.777344 730.738281 1062.253906 693.136719 1084.851562 646.6875 C 1094.824219 626.191406 1103.960938 604.773438 1102.449219 580.933594 C 1087.347656 611.28125 1074.644531 642.621094 1049.074219 666.0625 C 1044.53125 674.34375 1037.699219 680.167969 1027.636719 685.832031 C 1027.144531 676.753906 1031.558594 671.378906 1035.726562 665.925781 C 1048.726562 625.421875 1045.0625 587.511719 1018.761719 552.777344 C 1010.320312 541.628906 1004.375 541.710938 997.148438 554.085938 C 971.058594 598.746094 974.945312 641.71875 1003.121094 683.707031 C 1013.589844 667.691406 1003.988281 648.601562 1010.710938 631.316406 C 1029.765625 672.421875 1026.332031 693.34375 998.585938 707.945312 L 998.542969 707.773438 C 996.839844 709.316406 995.132812 710.859375 993.421875 712.410156 C 979.410156 721.710938 965.097656 730.605469 951.460938 740.441406 C 938.757812 749.605469 932.285156 743.808594 926.910156 732.195312 C 915.148438 706.824219 909.199219 680 906.082031 652.375 C 905.046875 643.214844 909.054688 633.003906 902.433594 624.789062 C 893.953125 626.722656 893.953125 632.914062 893.050781 637.796875 C 886.015625 675.984375 883.660156 714.007812 897.238281 751.496094 C 900.265625 759.835938 905.578125 768.152344 896.050781 776.609375 C 859.449219 809.09375 838.976562 849.796875 837.007812 906.496094 C 801.738281 861.117188 760.046875 831.800781 727.707031 792.949219 C 695.855469 754.703125 671.609375 712.425781 658.839844 663.976562 C 637.703125 583.800781 662.664062 513.550781 730.230469 465.921875 C 754.8125 448.59375 782.167969 436.433594 810.875 427.164062 C 820.265625 424.128906 831.597656 424.0625 840.296875 413.296875 C 798.613281 409.1875 761.449219 418.117188 726.445312 433.65625 C 706.847656 442.363281 702.304688 435.988281 700.226562 418.6875 C 697.820312 398.640625 694.742188 378.6875 691.644531 356.445312 C 677.648438 386.148438 673.519531 415.289062 675.160156 445.539062 C 675.574219 453.058594 677.09375 460.816406 669.75 466.695312 C 626.710938 501.15625 600.488281 546.144531 587.828125 599.320312 C 585.078125 610.890625 578.746094 610.179688 571.046875 605.621094 C 563.796875 601.332031 556.738281 596.582031 550.132812 591.359375 C 518.257812 566.148438 494.714844 534.304688 475.917969 498.5 C 473.34375 493.597656 472.285156 482.355469 462.617188 486.5625 C 454.054688 490.292969 461.730469 497.355469 462.886719 502.511719 C 477.527344 567.71875 513.179688 618.433594 569.507812 654.292969 C 577.871094 659.609375 582.855469 664.75 584.105469 675.421875 C 592.132812 743.96875 623.632812 802.171875 665.234375 855.789062 C 670.042969 861.992188 678.773438 866.488281 676.734375 877.996094 C 511.546875 896.09375 390.871094 833.273438 316.015625 677.160156 C 338.125 794.078125 393.914062 877.710938 503.984375 917.507812 C 569.710938 941.277344 638.015625 943.8125 706.371094 934.410156 C 731.730469 930.914062 748.867188 936.8125 764.253906 956.273438 C 787.863281 986.132812 806.992188 1018.136719 817.738281 1054.804688 C 856.300781 1186.453125 782.226562 1332.628906 626.65625 1345.144531 C 483.820312 1356.648438 372.222656 1291.199219 276.835938 1195.597656 C 227.222656 1145.867188 199.035156 1078.878906 165.78125 1016.875 C 152.816406 992.714844 151.9375 965.1875 144.472656 939.511719 C 111.304688 825.414062 111.179688 712.039062 148.765625 598.660156 C 181.878906 498.765625 238.148438 413.089844 312.941406 340.980469 C 371.582031 284.449219 441.355469 243.136719 518.671875 214.199219 C 630.246094 172.445312 744.265625 160.304688 860.417969 184.058594 C 1070.3125 226.992188 1223.59375 344.871094 1308.6875 542.808594 C 1380.125 709.003906 1372.160156 876 1295.542969 1039.375 C 1278.460938 1075.804688 1257.101562 1110.234375 1237.710938 1145.59375 C 1272.441406 1113.464844 1292.574219 1071.8125 1312.503906 1030.132812 C 1320 1014.429688 1325.8125 997.910156 1332.75 980.863281 C 1342.40625 986.90625 1336.976562 992.941406 1335.035156 998.851562 C 1320.234375 1043.902344 1295.730469 1084.625 1273.902344 1126.097656 C 1263.648438 1145.574219 1248.367188 1164.902344 1233.457031 1182.871094 C 1201.160156 1225.777344 1164.644531 1264.316406 1119.011719 1293.421875 C 1117.410156 1299.570312 1108.410156 1299.703125 1108.050781 1306.859375 C 1112.195312 1311.738281 1116.851562 1308.683594 1121.367188 1307.75 C 1125.949219 1305.433594 1130.53125 1303.128906 1135.101562 1300.804688 C 1135.097656 1300.800781 1135.324219 1301 1135.324219 1301 C 1137.53125 1295.589844 1141.566406 1292.292969 1147.09375 1290.730469 C 1147.050781 1290.707031 1148.324219 1289.921875 1148.324219 1289.921875 C 1154.714844 1276.875 1169.902344 1276.277344 1179.53125 1267.84375 C 1179.503906 1267.824219 1180.425781 1266.878906 1180.425781 1266.878906 C 1185.933594 1256.628906 1192.792969 1247.894531 1204.996094 1245.210938 C 1204.082031 1238.007812 1208.671875 1234.632812 1214.21875 1231.90625 C 1240.589844 1201.617188 1266.953125 1171.335938 1293.324219 1141.035156 C 1294.382812 1135.066406 1296.082031 1129.527344 1302.582031 1127.183594 C 1302.113281 1123.113281 1302.347656 1119.382812 1307.15625 1117.902344 C 1307.433594 1111.445312 1309.910156 1106.464844 1316.425781 1104.21875 C 1316.921875 1102.289062 1317.425781 1100.351562 1317.925781 1098.421875 C 1318.863281 1100.347656 1319.800781 1102.257812 1320.742188 1104.191406 C 1335.367188 1102.429688 1343.308594 1093.011719 1349.597656 1080.59375 C 1389.886719 1001.253906 1414.539062 917.699219 1423.835938 828.925781 C 1427.84375 790.726562 1428.054688 752.75 1427.230469 709.792969 C 1440.117188 724.71875 1437.757812 739.355469 1437.855469 751.179688 C 1438.378906 809.246094 1432.523438 866.667969 1419.964844 923.734375 C 1411.042969 964.289062 1399.640625 1003.941406 1383.695312 1041.808594 C 1359.097656 1100.265625 1327.511719 1155.199219 1286.824219 1204.335938 C 1275.042969 1218.550781 1270.253906 1233.648438 1269.097656 1252.726562 C 1267.917969 1272.324219 1250.023438 1284.644531 1234.003906 1295.53125 C 1234.003906 1295.550781 1234.292969 1297.25 1234.292969 1297.25 C 1235.625 1300.453125 1233.496094 1304.933594 1237.886719 1307.023438 C 1241.925781 1303.722656 1245.964844 1300.4375 1249.996094 1297.140625 C 1252.289062 1295.289062 1254.585938 1293.441406 1256.894531 1291.578125 C 1257.886719 1290.515625 1258.867188 1289.457031 1259.847656 1288.394531 C 1266.191406 1281.816406 1272.527344 1275.257812 1278.875 1268.675781 C 1279.867188 1267.332031 1280.851562 1265.996094 1281.847656 1264.65625 C 1306.808594 1239.292969 1318.785156 1203.792969 1347.121094 1181.046875 C 1352.140625 1173.746094 1357.160156 1166.445312 1362.1875 1159.152344 L 1362.214844 1159.117188 C 1362.207031 1159.136719 1362.207031 1159.136719 1362.195312 1159.144531 C 1363.59375 1157.359375 1364.992188 1155.59375 1366.390625 1153.800781 L 1365.867188 1153.785156 C 1368.882812 1145.109375 1370.339844 1135.371094 1380.792969 1131.726562 C 1383.878906 1128.636719 1386.964844 1125.53125 1390.0625 1122.4375 C 1389.460938 1118.574219 1389.488281 1114.933594 1393.496094 1112.707031 C 1394.117188 1109.804688 1394.738281 1106.894531 1395.359375 1104 C 1402.296875 1082.085938 1414.042969 1063.003906 1429.691406 1043.238281 C 1431.363281 1050.273438 1432.429688 1054.761719 1433.789062 1060.496094 C 1447.183594 1041.769531 1446.296875 1019.46875 1456.675781 1001.492188 C 1457.871094 997.238281 1459.089844 992.988281 1460.296875 988.734375 C 1462.414062 982.320312 1464.527344 975.914062 1466.640625 969.507812 C 1467.359375 966.652344 1468.078125 963.804688 1468.800781 960.960938 C 1469.8125 959.058594 1470.824219 957.164062 1471.832031 955.253906 C 1471.832031 955.242188 1471.148438 954.878906 1471.148438 954.878906 C 1477.742188 916.226562 1485.742188 877.753906 1490.632812 838.890625 C 1499.847656 765.761719 1495.679688 692.960938 1480.953125 620.789062 Z M 1423.898438 671.007812 C 1414.816406 621.917969 1399.726562 574.425781 1387.464844 526.1875 C 1402.601562 573.660156 1430.792969 617.679688 1423.898438 671.007812 Z M 1466.09375 900.945312 C 1466.855469 871.007812 1468.195312 841.136719 1476.738281 812.105469 C 1477.789062 842.257812 1478.226562 872.34375 1466.09375 900.945312 Z M 1466.09375 900.945312 " fill-opacity="1" fill-rule="evenodd"/><path fill="#1c694b" d="M 826.367188 224.25 C 823.859375 213.253906 819.539062 210.933594 808.871094 215.007812 C 755.066406 235.546875 718.78125 298.941406 728.730469 360.078125 C 741.257812 342.800781 752.558594 327.210938 765.980469 308.707031 C 768.90625 333.328125 750.417969 348.015625 749.664062 370.199219 C 804.316406 344.996094 838.546875 277.679688 826.367188 224.25 Z M 826.367188 224.25 " fill-opacity="1" fill-rule="evenodd"/><path fill="#1c694b" d="M 321.253906 652.625 C 328.722656 653.601562 328.917969 646.863281 330.222656 641.933594 C 339.949219 604.941406 333.957031 570.285156 312.808594 538.8125 C 303.128906 524.433594 290.828125 502.691406 274.957031 506.324219 C 258.339844 510.121094 259.554688 535.476562 257.160156 552.261719 C 251.347656 593.226562 274.585938 643.863281 304.3125 658.015625 C 302.257812 644.066406 300.246094 630.351562 298.226562 616.636719 C 308.53125 623.886719 314.136719 631.757812 315.984375 641.53125 C 316.792969 645.800781 315.0625 651.8125 321.253906 652.625 Z M 321.253906 652.625 " fill-opacity="1" fill-rule="evenodd"/><path fill="#1c694b" d="M 330.195312 793.082031 C 289.003906 754.457031 210.394531 754.113281 174.328125 788.507812 C 164.136719 798.230469 172.65625 801.859375 177.976562 805.996094 C 210.820312 831.488281 247.96875 840.3125 288.449219 831.011719 C 302.269531 827.84375 317.773438 825.253906 327.1875 810.480469 C 308.832031 807.585938 292.109375 804.941406 275.375 802.3125 C 275.46875 800.429688 275.5625 798.535156 275.648438 796.644531 C 292.5 795.546875 309.351562 794.445312 330.195312 793.082031 Z M 330.195312 793.082031 " fill-opacity="1" fill-rule="evenodd"/><path fill="#1c694b" d="M 1269.671875 642.695312 C 1273.914062 637.664062 1282.492188 632.933594 1270.976562 625.027344 C 1231.035156 597.605469 1154.703125 610.476562 1124.433594 652.027344 C 1140.070312 653.441406 1155.007812 649.464844 1171.085938 654.371094 C 1157.347656 663.503906 1140.472656 662.035156 1126.894531 672.949219 C 1178.730469 694.390625 1237.011719 681.53125 1269.671875 642.695312 Z M 1269.671875 642.695312 " fill-opacity="1" fill-rule="evenodd"/><path fill="#1c694b" d="M 593.519531 378.855469 C 603.386719 389.835938 613.242188 400.816406 624.476562 413.339844 C 628.714844 358.304688 592.75 304.996094 544.0625 290.480469 C 537.253906 288.453125 531.589844 285.425781 528.46875 296.210938 C 515.585938 340.769531 558.5625 411.121094 605.898438 421.941406 L 606.226562 421.65625 C 600.625 408.695312 595.019531 395.734375 589.414062 382.785156 C 588.203125 380.761719 583.34375 379.792969 586.332031 376.6875 C 588.445312 374.511719 591.699219 376.058594 593.519531 378.855469 Z M 593.519531 378.855469 " fill-opacity="1" fill-rule="evenodd"/><path fill="#1c694b" d="M 1025.773438 890.324219 C 1025.773438 914.585938 1025.773438 937.851562 1025.773438 961.109375 C 1024.890625 961.191406 1024.015625 961.277344 1023.140625 961.363281 C 1018.445312 938.679688 1013.742188 915.996094 1008.679688 891.578125 C 973.332031 934.84375 989.605469 1007.585938 1024.414062 1039.496094 C 1029.207031 1043.898438 1032.769531 1044.738281 1037.484375 1038.90625 C 1070.292969 998.3125 1064.523438 916.835938 1025.773438 890.324219 Z M 1025.773438 890.324219 " fill-opacity="1" fill-rule="evenodd"/><path fill="#1c694b" d="M 436.625 911.113281 C 387.601562 907.617188 331.496094 951.503906 324.328125 998.117188 C 323.054688 1006.390625 323.589844 1010.9375 333.753906 1011.34375 C 371.640625 1012.859375 436.542969 987.257812 449.625 928.808594 L 449.03125 928.25 C 436.996094 928.097656 428.660156 943.039062 414.8125 936.378906 C 420.273438 926.566406 432.925781 922.726562 436.625 911.113281 Z M 436.625 911.113281 " fill-opacity="1" fill-rule="evenodd"/><path fill="#1c694b" d="M 1041.007812 386.398438 C 1044.933594 380.449219 1046.691406 376.914062 1039.578125 371.648438 C 1006.035156 346.773438 924.125 357.65625 896.648438 390.824219 C 890.144531 398.667969 895.4375 399.175781 901.265625 400.132812 C 919.417969 397.886719 937.574219 395.640625 955.726562 393.398438 C 938.953125 404.386719 920.945312 410.621094 901.542969 412.554688 C 902.0625 416.027344 890.621094 418.097656 901.722656 423.308594 C 942.878906 442.65625 1016.546875 423.527344 1041.007812 386.398438 Z M 1041.007812 386.398438 " fill-opacity="1" fill-rule="evenodd"/><path fill="#1c694b" d="M 924.304688 569.128906 L 924.492188 569.296875 C 965.164062 554.183594 998.21875 484.90625 982.878906 447.519531 C 980.367188 441.4375 977.636719 439.527344 970.878906 441.125 C 929.347656 450.949219 891.96875 521.285156 908.003906 562.96875 C 915.691406 550.992188 922.816406 539.890625 933.628906 523.039062 C 933.332031 543.957031 920.144531 554.828125 924.304688 569.128906 Z M 924.304688 569.128906 " fill-opacity="1" fill-rule="evenodd"/><path fill="#1c694b" d="M 1133.667969 883.441406 C 1128.453125 887.417969 1131.40625 893.179688 1133.679688 897.941406 C 1143.78125 919.167969 1157.925781 937.109375 1178.679688 948.625 C 1196.523438 958.515625 1221.304688 975.570312 1234.632812 961.488281 C 1247.652344 947.710938 1230.269531 923.023438 1219.253906 905.847656 C 1200.980469 877.347656 1167.6875 858.945312 1143.332031 861.804688 C 1145.542969 877.53125 1161.410156 883.511719 1170.574219 898.65625 C 1157.882812 898.335938 1153.253906 890.152344 1145.996094 887.125 C 1142.023438 885.46875 1138.039062 880.089844 1133.667969 883.441406 Z M 1133.667969 883.441406 " fill-opacity="1" fill-rule="evenodd"/><path fill="#1c694b" d="M 1123.605469 536.574219 C 1157.234375 517.546875 1177.472656 449.675781 1160.382812 415.453125 C 1157.34375 409.351562 1155.183594 407.765625 1148.453125 410.332031 C 1109.316406 425.226562 1082.515625 492.671875 1100.167969 533.085938 C 1108.347656 524.875 1108.382812 510.867188 1122.46875 502.261719 C 1119.765625 515.269531 1117.753906 525 1115.328125 536.699219 C 1119.164062 536.703125 1121.894531 537.542969 1123.605469 536.574219 Z M 1123.605469 536.574219 " fill-opacity="1" fill-rule="evenodd"/><path fill="#1c694b" d="M 402.875 744.984375 C 433.175781 722.023438 445.8125 656.121094 426.90625 622.25 C 422.855469 614.972656 419.960938 611.976562 411.382812 617.257812 C 378.832031 637.296875 357.820312 702.347656 373.253906 736.441406 C 379.898438 751.148438 380.257812 733.90625 384.039062 734.636719 C 387.070312 724.09375 389.402344 713.222656 399.628906 698.574219 C 398.769531 716.789062 399.441406 728.570312 393.878906 739.699219 C 389.785156 753.535156 396 750.199219 402.875 744.984375 Z M 402.875 744.984375 " fill-opacity="1" fill-rule="evenodd"/><path fill="#1c694b" d="M 1118.042969 809.867188 C 1144.507812 793.402344 1162.929688 770.984375 1171.238281 740.386719 C 1175.402344 725.066406 1171.238281 721.625 1155.691406 723.847656 C 1111.566406 730.179688 1084.339844 756.441406 1066.730469 795.234375 C 1066.511719 803.753906 1068.804688 805.816406 1076.910156 800.761719 C 1087.320312 794.261719 1095.261719 783.542969 1108.359375 781.507812 C 1108.457031 781.382812 1108.558594 781.246094 1108.660156 781.125 C 1108.785156 781.074219 1108.9375 781.042969 1109.078125 781.007812 C 1109.5 779.992188 1109.910156 778.976562 1110.3125 777.960938 C 1113.609375 780.90625 1110.730469 780.640625 1109.078125 781.007812 C 1109.042969 781.136719 1108.992188 781.261719 1108.9375 781.382812 C 1108.734375 781.410156 1108.5625 781.488281 1108.363281 781.507812 C 1099.390625 792.953125 1090.40625 804.402344 1080.765625 816.71875 C 1095.757812 822.089844 1106.183594 812.15625 1118.042969 809.867188 Z M 1118.042969 809.867188 " fill-opacity="1" fill-rule="evenodd"/><path fill="#1c694b" d="M 527.925781 1065.144531 C 529.292969 1072.9375 531.515625 1075.09375 539.753906 1073.644531 C 578.570312 1066.796875 615.183594 1014.027344 608.234375 973.917969 C 593.746094 974.976562 595.664062 995.417969 579.035156 998.4375 C 584.230469 986.90625 588.371094 977.714844 594.160156 964.871094 C 551.535156 979.164062 521.398438 1027.914062 527.925781 1065.144531 Z M 527.925781 1065.144531 " fill-opacity="1" fill-rule="evenodd"/><path fill="#1c694b" d="M 434.507812 436.699219 C 438.191406 437.699219 442.5 440.570312 444.941406 437.316406 C 446.269531 435.566406 444.171875 430.296875 442.410156 427.304688 C 425.457031 398.417969 376.109375 377.824219 343.875 385.28125 C 332.089844 388.003906 331.492188 393.523438 335.9375 403.273438 C 352.015625 438.613281 397.148438 460.566406 437.839844 452.175781 C 433.710938 444.765625 422.605469 446.164062 419.460938 437.480469 C 424.414062 434.246094 429.671875 435.398438 434.507812 436.699219 Z M 434.507812 436.699219 " fill-opacity="1" fill-rule="evenodd"/><path fill="#1c694b" d="M 856.835938 758.078125 C 837.25 721.1875 799.859375 701.429688 761.808594 707.429688 C 755.996094 708.351562 749.1875 707.476562 750.429688 717.398438 C 754.550781 750.230469 814.757812 784.003906 847.613281 771.65625 C 844.058594 763.382812 832.167969 764.664062 829.203125 755.488281 C 838.738281 750.230469 845.902344 762.269531 856.835938 758.078125 Z M 856.835938 758.078125 " fill-opacity="1" fill-rule="evenodd"/><path fill="#1c694b" d="M 555.710938 849.53125 C 573.128906 809.949219 563.222656 765.839844 535.320312 742.195312 C 524.84375 733.328125 518.449219 733.855469 514.238281 747.769531 C 502.308594 787.1875 510.332031 821.308594 539.996094 850.972656 C 543.789062 839.75 540.8125 829.480469 543.167969 818.351562 C 546.804688 827.390625 550.445312 836.429688 555.710938 849.53125 Z M 555.710938 849.53125 " fill-opacity="1" fill-rule="evenodd"/><path fill="#1c694b" d="M 814.816406 542.070312 C 808.03125 538.246094 800.1875 531.054688 795.816406 545.757812 C 785.347656 581.003906 807.441406 628.933594 841.292969 643.015625 L 841.4375 642.871094 C 844.5625 636.710938 833.21875 631.046875 839.21875 626.472656 C 849.367188 618.726562 848.832031 638.910156 858.449219 635.511719 C 862.851562 594.871094 846.746094 560.046875 814.816406 542.070312 Z M 814.816406 542.070312 " fill-opacity="1" fill-rule="evenodd"/><g clip-path="url(#dab05dee2a)"><g transform="matrix(1, 0, 0, 1, 808, 930)"><g clip-path="url(#f84c624617)"><g clip-path="url(#563d130b7d)"><path fill="#1c694b" d="M 0.453125 0.523438 L 51.136719 0.523438 L 51.136719 53.1875 L 0.453125 53.1875 Z M 0.453125 0.523438 " fill-opacity="1" fill-rule="nonzero"/></g></g></g></g></svg>